<svg id="orchards" class="fill" xmlns="http://www.w3.org/2000/svg" width="52" height="52" viewBox="0 0 52 52">
  <g transform="translate(130 -10)">
    <path d="M-121.062,52.25a8.433,8.433,0,0,0,3.555-.785v8.5h-8.125a1.016,1.016,0,0,0-1.016,1.016A1.016,1.016,0,0,0-125.633,62h43.266a1.016,1.016,0,0,0,1.016-1.016,1.016,1.016,0,0,0-1.016-1.016h-8.125v-8.5a8.433,8.433,0,0,0,3.555.785A8.907,8.907,0,0,0-78,43.617a8.888,8.888,0,0,0-6.428-8.261,7.149,7.149,0,0,0-3.646-5.582,10.067,10.067,0,0,0,.629-3.525,10.141,10.141,0,0,0-.305-2.474,1.016,1.016,0,0,0-1.233-.737,1.016,1.016,0,0,0-.737,1.233,8.11,8.11,0,0,1,.244,1.978,8.055,8.055,0,0,1-.5,2.807,7.121,7.121,0,0,0-1.533-.167,7.119,7.119,0,0,0-7.081,6.466,9.227,9.227,0,0,0-4.4,2.888V29.938l5.82-2.771a1.016,1.016,0,0,0,.48-1.354,1.016,1.016,0,0,0-1.354-.48l-4.946,2.355V20.156A1.016,1.016,0,0,0-104,19.141a1.016,1.016,0,0,0-1.016,1.016v4.485l-4.946-2.355a1.016,1.016,0,0,0-1.354.48,1.016,1.016,0,0,0,.48,1.354l5.82,2.771V38.244a9.227,9.227,0,0,0-4.4-2.888,7.119,7.119,0,0,0-7.081-6.466,7.121,7.121,0,0,0-1.533.167,8.055,8.055,0,0,1-.5-2.807,8.059,8.059,0,0,1,6.894-8,1.016,1.016,0,0,0,.845-.82,6.955,6.955,0,0,1,6.784-5.4,6.955,6.955,0,0,1,6.784,5.4,1.016,1.016,0,0,0,.845.82,8.2,8.2,0,0,1,1.229.287,1.015,1.015,0,0,0,1.275-.662,1.016,1.016,0,0,0-.662-1.275c-.279-.088-.562-.165-.849-.229A8.975,8.975,0,0,0-104,10a8.975,8.975,0,0,0-8.622,6.375,10.129,10.129,0,0,0-7.932,9.875,10.068,10.068,0,0,0,.629,3.525,7.149,7.149,0,0,0-3.646,5.582A8.888,8.888,0,0,0-130,43.617a8.907,8.907,0,0,0,8.938,8.633Zm5.586-.785a8.433,8.433,0,0,0,3.555.785,9.091,9.091,0,0,0,6.906-3.225V59.969h-10.461Zm12.492,8.5V49.025a9.091,9.091,0,0,0,6.906,3.225,8.433,8.433,0,0,0,3.555-.785v8.5Zm5.6-22.821a1.023,1.023,0,0,0,.8-1.193,5.084,5.084,0,0,1,5.078-5.033,5.083,5.083,0,0,1,5.078,5.033,1.023,1.023,0,0,0,.8,1.193,6.863,6.863,0,0,1,5.6,6.469,6.85,6.85,0,0,1-6.906,6.6,6.478,6.478,0,0,1-3.555-1.07v-3.38L-84.96,43a1.016,1.016,0,0,0,.454-1.363,1.016,1.016,0,0,0-1.363-.454L-90.492,43.5V36a1.016,1.016,0,0,0-1.016-1.016A1.016,1.016,0,0,0-92.523,36v3.642l-1.313-1.313a1.016,1.016,0,0,0-1.436,0,1.016,1.016,0,0,0,0,1.436l2.749,2.75v6.634a6.478,6.478,0,0,1-3.555,1.07,6.85,6.85,0,0,1-6.906-6.6A6.863,6.863,0,0,1-97.386,37.148Zm-24.984,0a1.022,1.022,0,0,0,.8-1.193,5.082,5.082,0,0,1,5.078-5.033,5.084,5.084,0,0,1,5.078,5.033,1.023,1.023,0,0,0,.8,1.193,6.863,6.863,0,0,1,5.6,6.469,6.85,6.85,0,0,1-6.906,6.6,6.478,6.478,0,0,1-3.555-1.07v-.54l2.749-2.749a1.016,1.016,0,0,0,0-1.436,1.016,1.016,0,0,0-1.436,0l-1.313,1.313V39.047a1.016,1.016,0,0,0-1.016-1.016,1.016,1.016,0,0,0-1.016,1.016V43.5l-4.624-2.312a1.016,1.016,0,0,0-1.363.454A1.016,1.016,0,0,0-123.04,43l5.532,2.766v3.38a6.477,6.477,0,0,1-3.555,1.07,6.85,6.85,0,0,1-6.906-6.6,6.863,6.863,0,0,1,5.6-6.469Z" fill="#324655"/>
    <circle cx="1" cy="1" r="1" transform="translate(-92 19)" fill="#324655"/>
  </g>
</svg>
