<svg id="population" class="fill" xmlns="http://www.w3.org/2000/svg" width="62.166" height="62.164" viewBox="0 0 62.166 62.164">
  <path id="Контур_25242" data-name="Контур 25242" d="M-439.009,160.463a14.936,14.936,0,0,0,3.377,9.388,10.807,10.807,0,0,0,8.3,4.219,10.782,10.782,0,0,0,8.285-4.217,14.947,14.947,0,0,0,3.366-9.385v-.017a.971.971,0,0,0-.971-.971.971.971,0,0,0-.971.971v.017a12.974,12.974,0,0,1-2.919,8.146,8.88,8.88,0,0,1-6.789,3.513,8.9,8.9,0,0,1-6.8-3.517,12.962,12.962,0,0,1-2.929-8.148V159.3c0-2.4,1.614-5.67,2.226-6.822a33.89,33.89,0,0,1,11.183.5.976.976,0,0,0,.21.023.972.972,0,0,0,.948-.762.971.971,0,0,0-.739-1.158,35.985,35.985,0,0,0-12.256-.478.969.969,0,0,0-.8.484,27.428,27.428,0,0,0-1.639,3.471,32.775,32.775,0,0,1-.636-5.194c0-3.4,2.151-4.919,4.284-4.919a.974.974,0,0,0,.2-.022.973.973,0,0,0,.2.022.967.967,0,0,0,.587-.2c2.13-1.618,4.976-1.407,7.734-.938a.971.971,0,0,0,1.12-.795.971.971,0,0,0-.795-1.12c-2.938-.5-6.284-.748-8.967,1.113-.029,0-.058,0-.087,0a5.91,5.91,0,0,0-4.609,2.075,7.4,7.4,0,0,0-1.617,4.788,56.017,56.017,0,0,0,1.5,9.529v1.577Z" transform="translate(449.675 -126.454)" fill="#324655"/>
  <path id="Контур_25243" data-name="Контур 25243" d="M-476.933,399.974l-.063-.015-5.779-1.209-1.528-2.317q-.016-.025-.034-.048a1.716,1.716,0,0,0-1.16-.671,1.717,1.717,0,0,0-1.287.374l-.019.016-6.872,5.915-6.871-5.915-.019-.016a1.715,1.715,0,0,0-1.287-.374,1.716,1.716,0,0,0-1.16.671q-.018.023-.034.048l-1.528,2.317-5.779,1.209-.063.015a7.387,7.387,0,0,0-4.134,3.013A8.34,8.34,0,0,0-516,407.639v1.826a3.056,3.056,0,0,0,3.18,2.906h38.289a3.056,3.056,0,0,0,3.18-2.906v-1.826a8.339,8.339,0,0,0-1.449-4.652A7.387,7.387,0,0,0-476.933,399.974Zm-8.82-2.211,1.206,1.829-4.826,6.636-2.874-2.874Zm-8.559,10.731h1.274l.387,1.935H-494.7Zm1.609-2.475c0,.32-.195.532-.324.532h-1.3c-.129,0-.324-.212-.324-.532v-.374l.971-.971.971.971v.374Zm-8.893-8.256,6.494,5.59-2.874,2.874-4.826-6.636Zm-12.461,11.7v-1.826a6.031,6.031,0,0,1,4.135-5.786l5.523-1.155,5.521,7.592a.971.971,0,0,0,.71.4c.025,0,.051,0,.076,0a.971.971,0,0,0,.687-.284l1.133-1.133a2.5,2.5,0,0,0,.17.272l-.577,2.884H-512.82A1.142,1.142,0,0,1-514.057,409.466Zm40.765,0a1.142,1.142,0,0,1-1.238.963h-16.14l-.577-2.884a2.488,2.488,0,0,0,.17-.272l1.133,1.133a.971.971,0,0,0,.687.284l.076,0a.971.971,0,0,0,.71-.4l5.521-7.592,5.523,1.155a6.032,6.032,0,0,1,4.135,5.786v1.826Z" transform="translate(516 -350.207)" fill="#324655"/>
  <path id="Контур_25244" data-name="Контур 25244" d="M-274.516,21.009A17.5,17.5,0,0,0-292,38.493a17.5,17.5,0,0,0,17.484,17.484,17.5,17.5,0,0,0,17.484-17.484A17.5,17.5,0,0,0-274.516,21.009Zm0,33.026a15.559,15.559,0,0,1-15.542-15.542,15.559,15.559,0,0,1,15.542-15.542,15.559,15.559,0,0,1,15.542,15.542A15.559,15.559,0,0,1-274.516,54.035Z" transform="translate(319.198 -21.009)" fill="#324655"/>
  <path id="Контур_25245" data-name="Контур 25245" d="M-221.664,93.883c0-.014,0-.027-.006-.041s0-.035-.008-.053-.008-.032-.012-.047-.007-.03-.012-.045-.011-.03-.016-.046-.01-.03-.016-.044-.013-.028-.019-.042-.013-.03-.021-.044-.016-.026-.023-.04-.016-.028-.025-.042-.021-.029-.032-.043-.016-.022-.025-.033a.976.976,0,0,0-.136-.136l-.033-.025-.043-.032-.042-.025-.04-.024-.044-.021-.042-.02-.044-.016-.046-.016-.045-.012-.047-.012-.053-.008-.041-.006c-.032,0-.064,0-.1,0h-5.828a.971.971,0,0,0-.971.971.971.971,0,0,0,.971.971h3.483l-7.369,7.369-2.227-2.227a.971.971,0,0,0-1.374,0l-7.771,7.771a.971.971,0,0,0,0,1.374.968.968,0,0,0,.687.284.968.968,0,0,0,.687-.284l7.084-7.084,2.227,2.227a.967.967,0,0,0,.5.267.972.972,0,0,0,.186.018.982.982,0,0,0,.186-.018.967.967,0,0,0,.5-.267h0l8.055-8.055v3.483a.971.971,0,0,0,.971.971.971.971,0,0,0,.971-.971V93.98C-221.659,93.948-221.66,93.915-221.664,93.883Z" transform="translate(277.026 -84.266)" fill="#324655"/>
</svg>
