<svg id="amounts-square" class="fill-stroke" xmlns="http://www.w3.org/2000/svg" width="81.313" height="65.399" viewBox="0 0 81.313 65.399">
  <g transform="translate(-1301.935 -2651)">
    <path class="fill" d="M62,120.938a15.317,15.317,0,0,0-23.732-12.8,47.777,47.777,0,0,0-2.539-7.985C32.945,93.6,29.3,90,25.464,90S17.979,93.59,15.2,100.108a47.016,47.016,0,0,0-2.431,7.515L8.923,93.52a1.179,1.179,0,0,0-2.274,0L-3.958,132.413a1.179,1.179,0,0,0,.2,1.025,1.179,1.179,0,0,0,.937.463H6.607v9.429a1.179,1.179,0,1,0,2.357,0V133.9h9.429a1.176,1.176,0,0,0,1.171-1.289,14.052,14.052,0,0,0,4.722,1.24v9.478a1.179,1.179,0,1,0,2.357,0v-9.478a14.1,14.1,0,0,0,8.047-3.377,15.318,15.318,0,0,0,10.81,5.736v7.118a1.179,1.179,0,1,0,2.357,0v-7.116A15.342,15.342,0,0,0,62,120.938ZM16.85,131.545H8.964v-1.869l2.086-2.086a1.179,1.179,0,0,0-1.667-1.667l-.419.419V118.58a1.179,1.179,0,0,0-2.357,0v5.4l-1.524-1.524a1.179,1.179,0,0,0-1.667,1.667l3.191,3.191v1.868h0v2.357H-1.278L7.786,98.31l3.993,14.641a50.827,50.827,0,0,0-.476,6.79,14.142,14.142,0,0,0,5.348,11.077Zm9.793-1.869,4.369-4.369a1.179,1.179,0,1,0-1.667-1.667l-2.7,2.7v-4.916l3.191-3.191a1.179,1.179,0,1,0-1.667-1.667l-1.524,1.524v-3.047a1.179,1.179,0,1,0-2.357,0v5.892h0v3.047l-2.7-2.7a1.179,1.179,0,1,0-1.667,1.667l4.369,4.369v1.868h0v2.3A11.821,11.821,0,0,1,13.66,119.74a50.19,50.19,0,0,1,3.708-18.707c2.351-5.514,5.3-8.676,8.1-8.676s5.74,3.177,8.1,8.715a50.191,50.191,0,0,1,3.709,18.668,11.82,11.82,0,0,1-10.626,11.745Zm21.214,4.172v-1.815l4.369-4.369A1.179,1.179,0,0,0,50.56,126l-2.7,2.7v-7.762a1.179,1.179,0,1,0-2.357,0v5.4l-2.7-2.7a1.179,1.179,0,1,0-1.667,1.667l4.369,4.369v1.868h0v2.3a12.965,12.965,0,0,1-9.144-5.068,14.1,14.1,0,0,0,3.269-9.04,51.941,51.941,0,0,0-.843-9.083,12.964,12.964,0,1,1,9.075,23.191Z" transform="translate(1320 2561)" fill="#324655"/>
    <path class="stroke" d="M6499.333,2870s26-19.333,78.667-3.333" transform="translate(-5196 -155)" fill="none" stroke="#324655" stroke-linecap="round" stroke-width="2"/>
  </g>
</svg>
