<svg id="vegetation" class="fill" xmlns="http://www.w3.org/2000/svg" width="43" height="54.246" viewBox="0 0 43 54.246">
  <path d="M-50.888.488h-3.423c-4-3.422-9.892-5.442-16.32-5.611v-5.185l4.045-4.045a12.257,12.257,0,0,0,2.241.206,13.589,13.589,0,0,0,9.524-4.018,13.332,13.332,0,0,0,3.713-12.248.879.879,0,0,0-.661-.661,13.332,13.332,0,0,0-12.248,3.713A13.381,13.381,0,0,0-67.828-15.6l-2.8,2.8V-29l2.639-2.639a9.165,9.165,0,0,0,1.542.13,10.116,10.116,0,0,0,7.092-2.99,9.929,9.929,0,0,0,2.762-9.124.879.879,0,0,0-.661-.661,9.93,9.93,0,0,0-9.124,2.762,9.977,9.977,0,0,0-2.857,8.642l-1.394,1.394v-1.7a10.182,10.182,0,0,0-2.95-7.194,9.978,9.978,0,0,0-2.858-8.635,9.93,9.93,0,0,0-9.124-2.762.879.879,0,0,0-.661.661,9.929,9.929,0,0,0,2.762,9.124A10.116,10.116,0,0,0-76.37-39a9.169,9.169,0,0,0,1.549-.131,8.437,8.437,0,0,1,2.433,5.949v12.889l-2.8-2.8A13.382,13.382,0,0,0-79-34.86,13.331,13.331,0,0,0-91.25-38.572a.879.879,0,0,0-.661.661A13.332,13.332,0,0,0-88.2-25.663a13.588,13.588,0,0,0,9.524,4.018,12.259,12.259,0,0,0,2.241-.206l4.045,4.045V-5.123C-78.815-4.954-84.7-2.934-88.707.488H-92.13a.879.879,0,0,0-.879.879.879.879,0,0,0,.879.879h41.243a.879.879,0,0,0,.879-.879A.879.879,0,0,0-50.888.488ZM-62.773-26.118A11.629,11.629,0,0,1-52.71-29.47a11.627,11.627,0,0,1-3.352,10.063,11.749,11.749,0,0,1-8.95,3.481l8.2-8.2a.879.879,0,0,0,0-1.243.879.879,0,0,0-1.243,0l-8.2,8.2A11.748,11.748,0,0,1-62.773-26.118Zm-2.363-14.156a8.226,8.226,0,0,1,6.933-2.4,8.227,8.227,0,0,1-2.4,6.933,8.35,8.35,0,0,1-5.764,2.475l5.054-5.054a.879.879,0,0,0,0-1.243.879.879,0,0,0-1.243,0l-5.06,5.06A8.35,8.35,0,0,1-65.136-40.274Zm-19.478-9.89a8.227,8.227,0,0,1,6.933,2.4A8.351,8.351,0,0,1-75.206-42l-5.054-5.054a.879.879,0,0,0-1.243,0,.879.879,0,0,0,0,1.243l5.06,5.06a8.35,8.35,0,0,1-5.775-2.476A8.227,8.227,0,0,1-84.614-50.164Zm-2.341,23.258a11.628,11.628,0,0,1-3.352-10.063,11.628,11.628,0,0,1,10.063,3.352,11.748,11.748,0,0,1,3.481,8.95l-8.2-8.2a.879.879,0,0,0-1.243,0,.879.879,0,0,0,0,1.243l8.2,8.2A11.748,11.748,0,0,1-86.955-26.906ZM-71.509-3.378A26.671,26.671,0,0,1-57.249.488H-85.769A26.67,26.67,0,0,1-71.509-3.378Z" transform="translate(93.009 52)" fill="#324655"/>
</svg>
