<svg xmlns="http://www.w3.org/2000/svg" width="9.35" height="12.641" viewBox="0 0 9.35 12.641">
  <g id="Group_8337" data-name="Group 8337" transform="translate(-560.416 -2596.1)">
    <g id="Group_7780" data-name="Group 7780" transform="translate(496.566 2596.25)">
      <g id="Group_7765" data-name="Group 7765" transform="translate(64)">
        <g id="Group_7764" data-name="Group 7764" transform="translate(0)">
          <path id="Path_25395" data-name="Path 25395" d="M72.99.883,72.167.06A.206.206,0,0,0,72.022,0H64.206A.206.206,0,0,0,64,.206V11.313a.206.206,0,0,0,.06.145l.823.823a.206.206,0,0,0,.145.06h7.816a.206.206,0,0,0,.206-.206V1.028A.206.206,0,0,0,72.99.883ZM70.376.7l1.972,1.972H70.376ZM72.639,11.93H65.114l-.7-.7V.411h5.553V2.88a.206.206,0,0,0,.206.206h2.468Zm0-9.547L70.667.411h1.269l.7.7Z" transform="translate(-64)" fill="#3d5567" stroke="#3d5567" stroke-width="0.3"/>
        </g>
      </g>
      <g id="Group_7767" data-name="Group 7767" transform="translate(65.645 3.497)">
        <g id="Group_7766" data-name="Group 7766" transform="translate(0)">
          <path id="Path_25396" data-name="Path 25396" d="M133.553,136h-5.348a.206.206,0,0,0,0,.411h5.348a.206.206,0,0,0,0-.411Z" transform="translate(-128 -136)" fill="#3d5567" stroke="#3d5567" stroke-width="0.3"/>
        </g>
      </g>
      <g id="Group_7769" data-name="Group 7769" transform="translate(65.645 4.731)">
        <g id="Group_7768" data-name="Group 7768" transform="translate(0)">
          <path id="Path_25397" data-name="Path 25397" d="M133.553,184h-5.348a.206.206,0,0,0,0,.411h5.348a.206.206,0,0,0,0-.411Z" transform="translate(-128 -184)" fill="#3d5567" stroke="#3d5567" stroke-width="0.3"/>
        </g>
      </g>
      <g id="Group_7771" data-name="Group 7771" transform="translate(65.645 5.965)">
        <g id="Group_7770" data-name="Group 7770" transform="translate(0)">
          <path id="Path_25398" data-name="Path 25398" d="M133.553,232h-5.348a.206.206,0,0,0,0,.411h5.348a.206.206,0,1,0,0-.411Z" transform="translate(-128 -232)" fill="#3d5567" stroke="#3d5567" stroke-width="0.3"/>
        </g>
      </g>
      <g id="Group_7773" data-name="Group 7773" transform="translate(65.645 7.199)">
        <g id="Group_7772" data-name="Group 7772" transform="translate(0)">
          <path id="Path_25399" data-name="Path 25399" d="M133.553,280h-5.348a.206.206,0,0,0,0,.411h5.348a.206.206,0,0,0,0-.411Z" transform="translate(-128 -280)" fill="#3d5567" stroke="#3d5567" stroke-width="0.3"/>
        </g>
      </g>
      <g id="Group_7775" data-name="Group 7775" transform="translate(65.645 8.433)">
        <g id="Group_7774" data-name="Group 7774" transform="translate(0)">
          <path id="Path_25400" data-name="Path 25400" d="M133.553,328h-5.348a.206.206,0,1,0,0,.411h5.348a.206.206,0,1,0,0-.411Z" transform="translate(-128 -328)" fill="#3d5567" stroke="#3d5567" stroke-width="0.3"/>
        </g>
      </g>
      <g id="Group_7777" data-name="Group 7777" transform="translate(65.645 9.667)">
        <g id="Group_7776" data-name="Group 7776" transform="translate(0)">
          <path id="Path_25401" data-name="Path 25401" d="M133.553,376h-5.348a.206.206,0,0,0,0,.411h5.348a.206.206,0,0,0,0-.411Z" transform="translate(-128 -376)" fill="#3d5567" stroke="#3d5567" stroke-width="0.3"/>
        </g>
      </g>
      <g id="Group_7779" data-name="Group 7779" transform="translate(67.702 1.44)">
        <g id="Group_7778" data-name="Group 7778" transform="translate(0)">
          <path id="Path_25402" data-name="Path 25402" d="M208.823,56a.823.823,0,1,0,.823.823A.823.823,0,0,0,208.823,56Zm0,1.234a.411.411,0,1,1,.411-.411A.411.411,0,0,1,208.823,57.234Z" transform="translate(-208 -56)" fill="#3d5567" stroke="#3d5567" stroke-width="0.3"/>
        </g>
      </g>
    </g>
  </g>
</svg>
