<svg xmlns="http://www.w3.org/2000/svg" width="13.999" height="13.999" viewBox="0 0 13.999 13.999">
  <g id="Group_8336" data-name="Group 8336" transform="translate(-558.001 -2574)">
    <g id="Group_7763" data-name="Group 7763" transform="translate(794.377 2549.547)">
      <path id="Path_25393" data-name="Path 25393" d="M-229.376,24.453a7.008,7.008,0,0,0-7,7,7.008,7.008,0,0,0,7,7,7.008,7.008,0,0,0,7-7A7.007,7.007,0,0,0-229.376,24.453Zm0,13.041a6.048,6.048,0,0,1-6.041-6.041,6.048,6.048,0,0,1,6.041-6.041,6.048,6.048,0,0,1,6.041,6.041A6.048,6.048,0,0,1-229.376,37.494Z" fill="#3d5567"/>
      <path id="Path_25394" data-name="Path 25394" d="M-133.033,72.313h-3.325V68.681a.479.479,0,0,0-.479-.479.479.479,0,0,0-.479.479v4.111a.479.479,0,0,0,.479.479h3.8a.479.479,0,0,0,.479-.479A.479.479,0,0,0-133.033,72.313Z" transform="translate(-92.732 -40.954)" fill="#3d5567"/>
    </g>
  </g>
</svg>
